<svg xmlns="http://www.w3.org/2000/svg" version="1.1" width="1024" height="1024">
<rect x="0" y="0" width="1024" height="1024" fill="#788974" />
<g transform="scale(4.000000) translate(0.5 0.5)">
<polygon fill="#ffffff" fill-opacity="0.501961" points="251,-16 -16,39 271,135" />
<polygon fill="#000000" fill-opacity="0.501961" points="14,99 -14,271 271,228" />
<polygon fill="#ffffff" fill-opacity="0.501961" points="13,135 271,15 -16,-16" />
<polygon fill="#0a3900" fill-opacity="0.501961" points="246,271 -16,108 271,116" />
<polygon fill="#f5feff" fill-opacity="0.501961" points="0,106 171,111 -14,11" />
<polygon fill="#192f00" fill-opacity="0.501961" points="-16,113 -12,271 271,253" />
<polygon fill="#e3eaff" fill-opacity="0.501961" points="23,-16 246,119 271,1" />
<polygon fill="#455f94" fill-opacity="0.501961" points="186,169 165,57 126,162" />
<polygon fill="#5d920f" fill-opacity="0.501961" points="148,111 56,182 -16,107" />
<polygon fill="#202e12" fill-opacity="0.501961" points="6,249 271,267 259,116" />
<polygon fill="#3b0900" fill-opacity="0.501961" points="175,78 160,105 152,75" />
<polygon fill="#e8f1ff" fill-opacity="0.501961" points="156,102 141,36 73,109" />
<polygon fill="#ffffff" fill-opacity="0.501961" points="175,228 185,244 169,242" />
<polygon fill="#e8eef5" fill-opacity="0.501961" points="256,-16 265,116 175,110" />
<polygon fill="#477601" fill-opacity="0.501961" points="221,212 191,113 271,116" />
<polygon fill="#dca79e" fill-opacity="0.501961" points="174,162 187,169 191,130" />
<polygon fill="#cbd4dc" fill-opacity="0.501961" points="24,-16 206,99 181,-8" />
<polygon fill="#000821" fill-opacity="0.501961" points="140,165 193,172 157,271" />
<polygon fill="#c6a18c" fill-opacity="0.501961" points="134,171 148,159 134,119" />
<polygon fill="#2f6ca2" fill-opacity="0.501961" points="196,136 185,103 129,113" />
<polygon fill="#d4dfd4" fill-opacity="0.501961" points="139,246 133,242 149,228" />
<polygon fill="#2c4f0d" fill-opacity="0.501961" points="-16,151 133,134 137,224" />
<polygon fill="#d5dce9" fill-opacity="0.501961" points="141,114 178,-16 -16,34" />
<polygon fill="#849db8" fill-opacity="0.501961" points="8,-16 74,7 -16,31" />
<polygon fill="#6a913c" fill-opacity="0.501961" points="215,228 226,247 251,231" />
<polygon fill="#000d2a" fill-opacity="0.501961" points="184,156 183,111 174,131" />
<polygon fill="#367097" fill-opacity="0.501961" points="139,164 169,99 181,163" />
<polygon fill="#061627" fill-opacity="0.501961" points="169,157 188,231 116,229" />
<polygon fill="#2b4c09" fill-opacity="0.501961" points="198,125 179,205 271,207" />
<polygon fill="#002740" fill-opacity="0.501961" points="157,122 139,161 143,128" />
<polygon fill="#618f20" fill-opacity="0.501961" points="135,112 0,108 -16,155" />
<polygon fill="#5083a6" fill-opacity="0.501961" points="182,105 128,135 143,105" />
<polygon fill="#e8ebf0" fill-opacity="0.501961" points="103,42 119,84 269,42" />
<polygon fill="#e4e6e3" fill-opacity="0.501961" points="173,243 171,230 185,248" />
<polygon fill="#f6f4ee" fill-opacity="0.501961" points="259,105 164,90 196,113" />
<polygon fill="#355a13" fill-opacity="0.501961" points="0,185 -7,127 132,151" />
<polygon fill="#bec9cf" fill-opacity="0.501961" points="206,34 111,38 17,-16" />
<polygon fill="#0d1307" fill-opacity="0.501961" points="221,262 139,236 148,269" />
<polygon fill="#021111" fill-opacity="0.501961" points="168,82 170,74 151,77" />
<polygon fill="#dae2ef" fill-opacity="0.501961" points="-16,14 -6,106 139,109" />
<polygon fill="#516127" fill-opacity="0.501961" points="13,231 50,185 -5,207" />
<polygon fill="#546a29" fill-opacity="0.501961" points="168,213 152,216 164,191" />
<polygon fill="#995e30" fill-opacity="0.501961" points="152,86 171,83 164,108" />
<polygon fill="#8db079" fill-opacity="0.501961" points="123,241 117,234 130,234" />
<polygon fill="#0b090c" fill-opacity="0.501961" points="224,230 271,226 205,205" />
<polygon fill="#a9bd91" fill-opacity="0.501961" points="142,230 150,236 134,245" />
<polygon fill="#c3dbe7" fill-opacity="0.501961" points="173,70 172,103 271,83" />
<polygon fill="#0f4059" fill-opacity="0.501961" points="183,102 161,110 155,104" />
<polygon fill="#a6bac3" fill-opacity="0.501961" points="130,163 148,161 157,149" />
<polygon fill="#503d3b" fill-opacity="0.501961" points="81,239 66,259 33,230" />
</g>
</svg>