<svg xmlns="http://www.w3.org/2000/svg" version="1.1" width="1024" height="1024">
<rect x="0" y="0" width="1024" height="1024" fill="#788974" />
<g transform="scale(4.000000) translate(0.5 0.5)">
<polygon fill="#ffffff" fill-opacity="0.501961" points="271,134 -16,38 252,-16" />
<polygon fill="#000000" fill-opacity="0.501961" points="12,98 -12,271 271,228" />
<polygon fill="#ffffff" fill-opacity="0.501961" points="-16,-16 11,136 271,12" />
<polygon fill="#0a3900" fill-opacity="0.501961" points="271,116 247,271 -16,108" />
<polygon fill="#ebf4ff" fill-opacity="0.501961" points="-16,106 76,-16 163,110" />
<polygon fill="#193000" fill-opacity="0.501961" points="-16,112 271,253 2,271" />
<polygon fill="#f5fbff" fill-opacity="0.501961" points="253,-16 166,97 271,119" />
<polygon fill="#47608a" fill-opacity="0.501961" points="201,151 121,175 163,63" />
<polygon fill="#649c0e" fill-opacity="0.501961" points="21,165 -16,107 149,112" />
<polygon fill="#212f12" fill-opacity="0.501961" points="10,254 271,259 254,117" />
<polygon fill="#d5dced" fill-opacity="0.501961" points="53,-8 114,113 270,-16" />
<polygon fill="#ffffff" fill-opacity="0.501961" points="168,243 174,227 183,245" />
<polygon fill="#3a0700" fill-opacity="0.501961" points="160,107 175,76 152,76" />
<polygon fill="#e1e9f5" fill-opacity="0.501961" points="-2,19 -4,106 149,110" />
<polygon fill="#dca58c" fill-opacity="0.501961" points="189,135 174,163 188,169" />
<polygon fill="#3c6607" fill-opacity="0.501961" points="-16,162 129,121 140,179" />
<polygon fill="#477601" fill-opacity="0.501961" points="191,115 271,116 219,210" />
<polygon fill="#000522" fill-opacity="0.501961" points="130,174 165,271 180,163" />
<polygon fill="#dbe5f5" fill-opacity="0.501961" points="271,34 162,42 188,121" />
<polygon fill="#b7bfbd" fill-opacity="0.501961" points="150,231 133,248 139,229" />
<polygon fill="#b1a097" fill-opacity="0.501961" points="138,172 130,133 142,108" />
<polygon fill="#92a8be" fill-opacity="0.501961" points="-16,20 115,18 14,-16" />
<polygon fill="#3873a4" fill-opacity="0.501961" points="140,162 183,166 167,104" />
<polygon fill="#d6dfe7" fill-opacity="0.501961" points="-16,98 31,13 162,102" />
<polygon fill="#698e3d" fill-opacity="0.501961" points="217,227 254,232 223,246" />
<polygon fill="#002542" fill-opacity="0.501961" points="186,110 173,119 183,159" />
<polygon fill="#274807" fill-opacity="0.501961" points="196,128 182,200 271,207" />
<polygon fill="#fffff6" fill-opacity="0.501961" points="164,91 196,113 235,112" />
<polygon fill="#3e7eaf" fill-opacity="0.501961" points="143,105 129,133 186,104" />
<polygon fill="#071827" fill-opacity="0.501961" points="187,229 175,165 105,236" />
<polygon fill="#c4cdd5" fill-opacity="0.501961" points="101,41 212,33 31,-16" />
<polygon fill="#e3e4f0" fill-opacity="0.501961" points="253,-16 66,-16 264,58" />
<polygon fill="#11120f" fill-opacity="0.501961" points="212,268 166,240 80,257" />
<polygon fill="#305311" fill-opacity="0.501961" points="-16,150 133,134 133,181" />
<polygon fill="#536229" fill-opacity="0.501961" points="12,230 -4,209 48,186" />
<polygon fill="#c7b5ad" fill-opacity="0.501961" points="156,150 134,158 136,168" />
<polygon fill="#092f46" fill-opacity="0.501961" points="139,160 141,118 156,128" />
<polygon fill="#5d472b" fill-opacity="0.501961" points="151,76 164,111 170,75" />
<polygon fill="#e5e8ee" fill-opacity="0.501961" points="271,19 198,74 70,66" />
<polygon fill="#ffffff" fill-opacity="0.501961" points="138,240 140,243 131,244" />
<polygon fill="#f7f4ee" fill-opacity="0.501961" points="78,96 157,92 135,111" />
<polygon fill="#000215" fill-opacity="0.501961" points="146,186 199,175 141,164" />
<polygon fill="#4c6125" fill-opacity="0.501961" points="169,219 153,217 164,187" />
<polygon fill="#bcd5e1" fill-opacity="0.501961" points="250,77 174,73 172,102" />
<polygon fill="#4182ab" fill-opacity="0.501961" points="188,110 197,134 182,131" />
<polygon fill="#0c0f13" fill-opacity="0.501961" points="162,229 215,208 271,228" />
<polygon fill="#9ab885" fill-opacity="0.501961" points="132,234 119,240 118,235" />
<polygon fill="#433e2e" fill-opacity="0.501961" points="76,221 -10,261 78,264" />
<polygon fill="#68952a" fill-opacity="0.501961" points="47,108 126,112 20,136" />
<polygon fill="#f4ac91" fill-opacity="0.501961" points="188,165 182,156 178,170" />
<polygon fill="#829c6a" fill-opacity="0.501961" points="81,200 74,197 85,215" />
<polygon fill="#1b2b05" fill-opacity="0.501961" points="271,176 255,257 243,164" />
<polygon fill="#6c9e26" fill-opacity="0.501961" points="194,125 191,113 238,115" />
<polygon fill="#365a15" fill-opacity="0.501961" points="-16,189 127,150 -14,127" />
<polygon fill="#000a00" fill-opacity="0.501961" points="135,265 217,271 226,245" />
<polygon fill="#fffffc" fill-opacity="0.501961" points="173,241 179,234 181,245" />
<polygon fill="#3a561e" fill-opacity="0.501961" points="101,217 141,199 140,171" />
<polygon fill="#1c1e14" fill-opacity="0.501961" points="43,235 15,201 139,233" />
<polygon fill="#b6764e" fill-opacity="0.501961" points="170,99 152,86 170,84" />
<polygon fill="#8ca1b0" fill-opacity="0.501961" points="4,26 -16,3 65,7" />
<polygon fill="#abd7b4" fill-opacity="0.501961" points="140,221 136,215 132,217" />
<polygon fill="#4a7415" fill-opacity="0.501961" points="179,190 208,203 194,212" />
<polygon fill="#4b711b" fill-opacity="0.501961" points="108,208 102,183 83,197" />
<polygon fill="#d7dee7" fill-opacity="0.501961" points="-16,37 91,3 34,108" />
<polygon fill="#0f2027" fill-opacity="0.501961" points="174,84 151,79 166,74" />
<polygon fill="#b1d0ad" fill-opacity="0.501961" points="219,207 216,203 226,208" />
<polygon fill="#010e06" fill-opacity="0.501961" points="87,194 97,179 63,182" />
<polygon fill="#d9874d" fill-opacity="0.501961" points="134,136 138,164 142,136" />
<polygon fill="#4c7519" fill-opacity="0.501961" points="11,120 132,124 88,147" />
<polygon fill="#25536e" fill-opacity="0.501961" points="162,121 154,162 186,109" />
<polygon fill="#3f6514" fill-opacity="0.501961" points="271,156 188,158 193,133" />
<polygon fill="#7ea74b" fill-opacity="0.501961" points="10,210 28,229 25,219" />
<polygon fill="#bfdae3" fill-opacity="0.501961" points="153,80 73,85 155,102" />
<polygon fill="#f5f1eb" fill-opacity="0.501961" points="264,88 257,114 193,112" />
<polygon fill="#1e343f" fill-opacity="0.501961" points="152,107 173,104 158,101" />
<polygon fill="#00102b" fill-opacity="0.501961" points="144,168 136,238 154,204" />
<polygon fill="#6f8c56" fill-opacity="0.501961" points="170,244 196,253 195,245" />
<polygon fill="#1e2f12" fill-opacity="0.501961" points="75,148 58,166 20,155" />
<polygon fill="#0e0911" fill-opacity="0.501961" points="47,235 12,237 3,250" />
<polygon fill="#6c99b5" fill-opacity="0.501961" points="147,102 147,115 179,114" />
<polygon fill="#6f9c2e" fill-opacity="0.501961" points="133,126 78,110 137,111" />
<polygon fill="#091808" fill-opacity="0.501961" points="65,185 21,185 22,172" />
<polygon fill="#00102a" fill-opacity="0.501961" points="183,231 178,164 165,222" />
<polygon fill="#75a22b" fill-opacity="0.501961" points="-16,107 59,109 -16,127" />
<polygon fill="#111e10" fill-opacity="0.501961" points="145,180 77,170 118,194" />
<polygon fill="#89aa7f" fill-opacity="0.501961" points="220,240 235,244 223,236" />
<polygon fill="#e1e2d7" fill-opacity="0.501961" points="138,238 143,246 134,243" />
<polygon fill="#766233" fill-opacity="0.501961" points="143,160 138,180 134,168" />
<polygon fill="#1e340d" fill-opacity="0.501961" points="172,243 143,254 140,236" />
<polygon fill="#edede9" fill-opacity="0.501961" points="119,109 69,90 58,107" />
<polygon fill="#5d90b2" fill-opacity="0.501961" points="145,149 141,162 162,166" />
<polygon fill="#36530f" fill-opacity="0.501961" points="17,201 50,214 81,179" />
<polygon fill="#a9bd8a" fill-opacity="0.501961" points="141,231 148,232 148,239" />
<polygon fill="#c2d7e2" fill-opacity="0.501961" points="8,77 94,86 -13,103" />
<polygon fill="#bc813d" fill-opacity="0.501961" points="185,154 183,137 193,146" />
<polygon fill="#c8dae5" fill-opacity="0.501961" points="182,67 271,98 170,92" />
<polygon fill="#001522" fill-opacity="0.501961" points="176,129 182,144 182,119" />
<polygon fill="#ffc5a9" fill-opacity="0.501961" points="136,159 133,167 141,159" />
<polygon fill="#0b2505" fill-opacity="0.501961" points="242,188 271,176 210,183" />
<polygon fill="#5e823e" fill-opacity="0.501961" points="96,218 93,213 110,209" />
</g>
</svg>