<svg xmlns="http://www.w3.org/2000/svg" version="1.1" width="1024" height="1024">
<rect x="0" y="0" width="1024" height="1024" fill="#788974" />
<g transform="scale(4.000000) translate(0.5 0.5)">
<polygon fill="#ffffff" fill-opacity="0.501961" points="-16,37 271,136 252,-16" />
<polygon fill="#000000" fill-opacity="0.501961" points="271,228 16,99 -16,271" />
<polygon fill="#ffffff" fill-opacity="0.501961" points="-16,-16 11,135 271,14" />
<polygon fill="#0b3a00" fill-opacity="0.501961" points="271,116 -16,107 248,271" />
<polygon fill="#f5feff" fill-opacity="0.501961" points="-16,13 176,110 -16,106" />
<polygon fill="#193000" fill-opacity="0.501961" points="-8,114 271,253 2,271" />
<polygon fill="#e2e9ff" fill-opacity="0.501961" points="43,9 257,118 256,-16" />
<polygon fill="#445f90" fill-opacity="0.501961" points="166,63 121,162 187,167" />
<polygon fill="#1f2d10" fill-opacity="0.501961" points="259,114 265,264 44,252" />
<polygon fill="#659c11" fill-opacity="0.501961" points="5,168 -1,107 153,112" />
<polygon fill="#3f1800" fill-opacity="0.501961" points="173,75 151,76 163,116" />
<polygon fill="#e2e5e8" fill-opacity="0.501961" points="173,227 190,249 168,243" />
<polygon fill="#d5dfee" fill-opacity="0.501961" points="130,-16 -16,99 159,114" />
<polygon fill="#feffff" fill-opacity="0.501961" points="271,114 172,79 190,112" />
<polygon fill="#3f6808" fill-opacity="0.501961" points="128,119 -16,168 142,177" />
<polygon fill="#477601" fill-opacity="0.501961" points="190,113 271,118 222,207" />
<polygon fill="#000523" fill-opacity="0.501961" points="164,271 131,171 181,163" />
<polygon fill="#f39e7a" fill-opacity="0.501961" points="189,135 190,167 177,174" />
<polygon fill="#326992" fill-opacity="0.501961" points="123,132 202,132 158,95" />
<polygon fill="#d5dad8" fill-opacity="0.501961" points="149,230 138,233 133,247" />
<polygon fill="#cea08e" fill-opacity="0.501961" points="148,159 134,171 134,124" />
<polygon fill="#c5cdd7" fill-opacity="0.501961" points="140,-16 0,26 214,46" />
<polygon fill="#e8eaf2" fill-opacity="0.501961" points="264,-7 271,85 138,68" />
<polygon fill="#8099b3" fill-opacity="0.501961" points="-11,-8 -16,29 73,9" />
<polygon fill="#688f3c" fill-opacity="0.501961" points="225,248 250,232 216,226" />
<polygon fill="#e9f1f5" fill-opacity="0.501961" points="145,75 157,100 65,109" />
<polygon fill="#0c1b23" fill-opacity="0.501961" points="151,197 97,230 271,228" />
<polygon fill="#314f15" fill-opacity="0.501961" points="131,141 -16,134 8,237" />
<polygon fill="#2b4d09" fill-opacity="0.501961" points="195,124 181,211 271,207" />
<polygon fill="#3c759e" fill-opacity="0.501961" points="180,164 168,108 139,162" />
<polygon fill="#001937" fill-opacity="0.501961" points="171,123 185,113 181,149" />
<polygon fill="#00253b" fill-opacity="0.501961" points="142,123 155,131 140,158" />
<polygon fill="#0f1407" fill-opacity="0.501961" points="140,265 150,233 196,257" />
<polygon fill="#c1dae8" fill-opacity="0.501961" points="164,97 236,95 185,69" />
<polygon fill="#000218" fill-opacity="0.501961" points="191,172 142,165 145,203" />
<polygon fill="#3f7ab2" fill-opacity="0.501961" points="190,135 190,114 169,94" />
<polygon fill="#6c9827" fill-opacity="0.501961" points="131,131 138,111 61,110" />
<polygon fill="#dae0eb" fill-opacity="0.501961" points="-16,37 142,110 79,12" />
<polygon fill="#ffffff" fill-opacity="0.501961" points="171,241 183,245 178,235" />
<polygon fill="#3a4f23" fill-opacity="0.501961" points="161,179 169,209 145,244" />
<polygon fill="#91b47d" fill-opacity="0.501961" points="118,233 129,236 121,241" />
<polygon fill="#9bb776" fill-opacity="0.501961" points="12,213 18,210 26,223" />
<polygon fill="#221c15" fill-opacity="0.501961" points="172,78 172,88 152,77" />
<polygon fill="#e2e2eb" fill-opacity="0.501961" points="223,-16 236,29 61,-1" />
<polygon fill="#5586a8" fill-opacity="0.501961" points="142,107 182,106 130,132" />
<polygon fill="#1a2c10" fill-opacity="0.501961" points="178,271 265,259 186,228" />
<polygon fill="#84b162" fill-opacity="0.501961" points="199,250 191,243 188,252" />
<polygon fill="#d6a578" fill-opacity="0.501961" points="134,156 141,160 139,178" />
<polygon fill="#a8653c" fill-opacity="0.501961" points="153,85 164,107 172,83" />
<polygon fill="#533b3c" fill-opacity="0.501961" points="59,264 81,240 49,231" />
<polygon fill="#1e1e17" fill-opacity="0.501961" points="-3,242 50,205 141,232" />
<polygon fill="#2a431d" fill-opacity="0.501961" points="142,173 137,239 119,154" />
<polygon fill="#4e6b24" fill-opacity="0.501961" points="108,201 61,206 103,185" />
<polygon fill="#e8e3df" fill-opacity="0.501961" points="138,246 140,238 134,245" />
<polygon fill="#1a1b19" fill-opacity="0.501961" points="82,247 145,271 185,245" />
<polygon fill="#4f7a1c" fill-opacity="0.501961" points="-16,122 128,115 90,147" />
<polygon fill="#121e11" fill-opacity="0.501961" points="88,185 -16,193 31,174" />
<polygon fill="#eeeee8" fill-opacity="0.501961" points="254,115 187,111 258,79" />
<polygon fill="#eac1a9" fill-opacity="0.501961" points="188,160 185,168 176,161" />
<polygon fill="#9ebb94" fill-opacity="0.501961" points="220,201 227,210 217,204" />
<polygon fill="#dfe4ea" fill-opacity="0.501961" points="198,52 37,17 124,89" />
<polygon fill="#eeffff" fill-opacity="0.501961" points="137,217 134,216 136,219" />
<polygon fill="#b2d2de" fill-opacity="0.501961" points="154,80 82,85 142,97" />
<polygon fill="#c4cdd5" fill-opacity="0.501961" points="122,42 202,31 27,-16" />
<polygon fill="#172e01" fill-opacity="0.501961" points="255,217 233,182 252,156" />
<polygon fill="#002838" fill-opacity="0.501961" points="151,103 171,104 164,108" />
<polygon fill="#79a7c6" fill-opacity="0.501961" points="141,161 153,166 151,147" />
<polygon fill="#000a1d" fill-opacity="0.501961" points="187,231 176,177 140,162" />
<polygon fill="#efefe9" fill-opacity="0.501961" points="140,91 139,110 74,108" />
<polygon fill="#4b721b" fill-opacity="0.501961" points="207,217 178,192 201,197" />
<polygon fill="#5d891a" fill-opacity="0.501961" points="194,134 192,115 262,116" />
<polygon fill="#2c586e" fill-opacity="0.501961" points="159,157 183,112 142,122" />
<polygon fill="#cddfea" fill-opacity="0.501961" points="177,50 171,100 185,102" />
<polygon fill="#6e9d2c" fill-opacity="0.501961" points="70,108 -1,108 73,128" />
<polygon fill="#9ca98f" fill-opacity="0.501961" points="8,224 16,225 16,229" />
<polygon fill="#001236" fill-opacity="0.501961" points="143,180 137,228 156,230" />
<polygon fill="#576029" fill-opacity="0.501961" points="36,202 50,185 -4,207" />
<polygon fill="#031105" fill-opacity="0.501961" points="84,196 73,186 104,168" />
<polygon fill="#d5dee9" fill-opacity="0.501961" points="-16,108 67,108 6,23" />
<polygon fill="#c59080" fill-opacity="0.501961" points="188,157 189,129 183,145" />
<polygon fill="#15160d" fill-opacity="0.501961" points="195,200 269,246 248,216" />
<polygon fill="#6e865b" fill-opacity="0.501961" points="74,200 81,199 86,216" />
<polygon fill="#4b7fa8" fill-opacity="0.501961" points="195,133 183,138 189,113" />
<polygon fill="#406616" fill-opacity="0.501961" points="239,120 183,157 271,164" />
<polygon fill="#b5d6bb" fill-opacity="0.501961" points="226,239 224,241 219,237" />
<polygon fill="#47741e" fill-opacity="0.501961" points="115,155 62,166 75,151" />
<polygon fill="#ffffff" fill-opacity="0.501961" points="140,245 137,239 134,242" />
<polygon fill="#607a52" fill-opacity="0.501961" points="141,248 140,228 150,233" />
<polygon fill="#667d35" fill-opacity="0.501961" points="-13,271 41,256 12,250" />
<polygon fill="#82b2d1" fill-opacity="0.501961" points="132,133 137,133 141,117" />
<polygon fill="#616345" fill-opacity="0.501961" points="156,202 166,190 166,200" />
<polygon fill="#0a0d10" fill-opacity="0.501961" points="114,177 105,196 134,187" />
<polygon fill="#32271a" fill-opacity="0.501961" points="158,106 157,91 163,94" />
<polygon fill="#3e6709" fill-opacity="0.501961" points="133,168 133,134 112,121" />
<polygon fill="#1d2c11" fill-opacity="0.501961" points="165,235 199,270 140,239" />
<polygon fill="#749764" fill-opacity="0.501961" points="35,169 31,170 30,179" />
<polygon fill="#1b3111" fill-opacity="0.501961" points="62,161 76,146 17,157" />
<polygon fill="#001f00" fill-opacity="0.501961" points="84,208 86,198 103,211" />
<polygon fill="#739e2b" fill-opacity="0.501961" points="-9,125 -6,107 49,109" />
<polygon fill="#00193c" fill-opacity="0.501961" points="174,232 185,218 166,200" />
<polygon fill="#3e6121" fill-opacity="0.501961" points="119,203 77,219 117,215" />
<polygon fill="#001c2e" fill-opacity="0.501961" points="176,130 183,111 184,149" />
<polygon fill="#201221" fill-opacity="0.501961" points="-16,194 13,202 31,193" />
<polygon fill="#0e2a05" fill-opacity="0.501961" points="123,157 132,163 97,176" />
<polygon fill="#071c04" fill-opacity="0.501961" points="200,170 209,175 180,195" />
<polygon fill="#080a12" fill-opacity="0.501961" points="119,206 137,236 143,227" />
<polygon fill="#032e41" fill-opacity="0.501961" points="169,160 175,149 167,151" />
<polygon fill="#002b2e" fill-opacity="0.501961" points="159,76 158,86 152,77" />
<polygon fill="#dde2ea" fill-opacity="0.501961" points="13,25 -16,81 216,69" />
<polygon fill="#36571f" fill-opacity="0.501961" points="183,156 217,180 258,177" />
<polygon fill="#56881e" fill-opacity="0.501961" points="56,182 68,174 51,176" />
<polygon fill="#5a930c" fill-opacity="0.501961" points="111,189 88,193 94,186" />
<polygon fill="#618da4" fill-opacity="0.501961" points="176,164 168,134 183,157" />
<polygon fill="#0f3a51" fill-opacity="0.501961" points="139,128 145,111 146,125" />
<polygon fill="#527d1c" fill-opacity="0.501961" points="23,143 90,123 -16,110" />
<polygon fill="#353826" fill-opacity="0.501961" points="47,237 33,223 -13,234" />
<polygon fill="#061007" fill-opacity="0.501961" points="172,255 259,271 221,248" />
<polygon fill="#619810" fill-opacity="0.501961" points="26,249 36,239 38,243" />
<polygon fill="#19230f" fill-opacity="0.501961" points="207,240 180,241 215,201" />
<polygon fill="#c3d8e2" fill-opacity="0.501961" points="-16,78 86,84 -7,105" />
<polygon fill="#3e6812" fill-opacity="0.501961" points="63,133 32,163 42,179" />
<polygon fill="#567f1b" fill-opacity="0.501961" points="196,227 176,232 189,233" />
<polygon fill="#000913" fill-opacity="0.501961" points="169,220 163,164 178,167" />
<polygon fill="#0e0b11" fill-opacity="0.501961" points="9,236 42,236 6,249" />
<polygon fill="#c58a5c" fill-opacity="0.501961" points="136,157 134,132 142,137" />
<polygon fill="#537f24" fill-opacity="0.501961" points="125,168 114,173 142,177" />
<polygon fill="#07190a" fill-opacity="0.501961" points="9,159 13,178 19,167" />
<polygon fill="#385c12" fill-opacity="0.501961" points="225,122 226,181 196,126" />
<polygon fill="#51781a" fill-opacity="0.501961" points="250,210 234,202 219,210" />
<polygon fill="#4b4234" fill-opacity="0.501961" points="24,216 8,209 14,185" />
<polygon fill="#041a09" fill-opacity="0.501961" points="220,182 244,187 258,179" />
<polygon fill="#b2c3cc" fill-opacity="0.501961" points="43,-2 122,20 79,20" />
<polygon fill="#b48a6b" fill-opacity="0.501961" points="172,97 164,104 166,84" />
<polygon fill="#e2e4ed" fill-opacity="0.501961" points="271,20 120,-14 265,73" />
<polygon fill="#96b88b" fill-opacity="0.501961" points="58,195 53,191 60,194" />
<polygon fill="#6290af" fill-opacity="0.501961" points="182,115 173,107 147,113" />
<polygon fill="#403430" fill-opacity="0.501961" points="86,242 62,221 43,241" />
<polygon fill="#efede9" fill-opacity="0.501961" points="196,112 245,107 167,92" />
<polygon fill="#b6c5be" fill-opacity="0.501961" points="244,231 233,231 237,229" />
<polygon fill="#3d6610" fill-opacity="0.501961" points="133,122 76,128 106,178" />
<polygon fill="#6d9e48" fill-opacity="0.501961" points="210,114 187,113 194,122" />
<polygon fill="#cadce5" fill-opacity="0.501961" points="168,73 271,75 218,104" />
<polygon fill="#345600" fill-opacity="0.501961" points="271,244 219,231 239,246" />
<polygon fill="#000e1b" fill-opacity="0.501961" points="129,210 152,218 156,185" />
<polygon fill="#527c1f" fill-opacity="0.501961" points="103,141 134,135 102,116" />
<polygon fill="#5b6f50" fill-opacity="0.501961" points="76,218 71,225 82,221" />
<polygon fill="#8dbde2" fill-opacity="0.501961" points="155,167 164,161 161,165" />
<polygon fill="#224007" fill-opacity="0.501961" points="223,181 199,187 237,213" />
<polygon fill="#476f0c" fill-opacity="0.501961" points="213,199 210,189 247,199" />
<polygon fill="#9fba9c" fill-opacity="0.501961" points="224,236 230,242 221,238" />
<polygon fill="#355311" fill-opacity="0.501961" points="98,197 143,189 138,202" />
<polygon fill="#161617" fill-opacity="0.501961" points="56,206 101,238 77,241" />
<polygon fill="#5c7744" fill-opacity="0.501961" points="217,227 205,232 218,232" />
<polygon fill="#072a00" fill-opacity="0.501961" points="94,172 78,177 59,171" />
<polygon fill="#3a610f" fill-opacity="0.501961" points="16,187 -16,176 -16,100" />
<polygon fill="#7fa842" fill-opacity="0.501961" points="87,118 115,109 74,110" />
<polygon fill="#131e0b" fill-opacity="0.501961" points="126,241 127,254 141,247" />
<polygon fill="#182b05" fill-opacity="0.501961" points="28,220 19,199 57,219" />
<polygon fill="#0b2003" fill-opacity="0.501961" points="37,182 48,173 67,196" />
<polygon fill="#5e8da0" fill-opacity="0.501961" points="151,101 135,113 161,107" />
<polygon fill="#9cc99a" fill-opacity="0.501961" points="138,218 130,216 133,215" />
<polygon fill="#e7e8e6" fill-opacity="0.501961" points="142,107 14,107 77,88" />
<polygon fill="#5f852d" fill-opacity="0.501961" points="249,167 241,148 227,143" />
<polygon fill="#4c7412" fill-opacity="0.501961" points="31,226 26,232 18,219" />
<polygon fill="#5d8234" fill-opacity="0.501961" points="206,154 219,161 227,176" />
<polygon fill="#11180b" fill-opacity="0.501961" points="252,221 203,205 229,231" />
<polygon fill="#c9d4da" fill-opacity="0.501961" points="41,42 84,53 48,59" />
<polygon fill="#3e651b" fill-opacity="0.501961" points="179,185 207,211 184,206" />
<polygon fill="#f1eee9" fill-opacity="0.501961" points="141,105 156,97 112,95" />
<polygon fill="#686051" fill-opacity="0.501961" points="114,208 117,195 120,205" />
<polygon fill="#597549" fill-opacity="0.501961" points="29,184 49,189 41,191" />
<polygon fill="#4d6b31" fill-opacity="0.501961" points="166,215 154,216 166,206" />
<polygon fill="#4f7b1c" fill-opacity="0.501961" points="68,185 58,189 75,192" />
<polygon fill="#c4dabb" fill-opacity="0.501961" points="216,203 225,206 221,203" />
<polygon fill="#44718d" fill-opacity="0.501961" points="170,114 149,151 160,106" />
<polygon fill="#52681b" fill-opacity="0.501961" points="4,219 -16,201 8,202" />
<polygon fill="#052e43" fill-opacity="0.501961" points="171,101 174,105 159,106" />
<polygon fill="#1b2911" fill-opacity="0.501961" points="135,170 134,185 93,200" />
<polygon fill="#58606d" fill-opacity="0.501961" points="157,73 176,82 169,73" />
<polygon fill="#7da7bf" fill-opacity="0.501961" points="143,153 155,150 145,164" />
<polygon fill="#071612" fill-opacity="0.501961" points="218,165 221,176 214,174" />
<polygon fill="#bfd5e1" fill-opacity="0.501961" points="170,90 209,97 180,72" />
<polygon fill="#0b374a" fill-opacity="0.501961" points="158,121 152,136 148,124" />
<polygon fill="#bacad4" fill-opacity="0.501961" points="24,17 61,13 42,32" />
<polygon fill="#95bc80" fill-opacity="0.501961" points="98,204 99,200 95,200" />
<polygon fill="#132d08" fill-opacity="0.501961" points="10,149 21,154 0,155" />
<polygon fill="#af9356" fill-opacity="0.501961" points="185,140 187,147 194,146" />
<polygon fill="#8b9e76" fill-opacity="0.501961" points="148,232 151,240 141,230" />
<polygon fill="#183903" fill-opacity="0.501961" points="215,168 188,169 188,161" />
<polygon fill="#8e9f95" fill-opacity="0.501961" points="96,215 94,213 91,216" />
<polygon fill="#4c7033" fill-opacity="0.501961" points="90,170 61,164 66,156" />
<polygon fill="#628d38" fill-opacity="0.501961" points="208,182 225,178 215,176" />
<polygon fill="#24480d" fill-opacity="0.501961" points="94,143 126,137 78,163" />
<polygon fill="#738b62" fill-opacity="0.501961" points="246,206 243,210 251,210" />
<polygon fill="#001c34" fill-opacity="0.501961" points="179,200 171,165 181,175" />
<polygon fill="#1d485e" fill-opacity="0.501961" points="162,153 168,158 183,147" />
<polygon fill="#c7c7c4" fill-opacity="0.501961" points="178,246 175,235 169,239" />
<polygon fill="#141a0d" fill-opacity="0.501961" points="152,219 171,238 168,216" />
<polygon fill="#192618" fill-opacity="0.501961" points="58,177 68,145 57,153" />
<polygon fill="#8ea1af" fill-opacity="0.501961" points="-11,24 -16,5 52,9" />
</g>
</svg>